<svg width="18" height="18" viewBox="0 0 18 19" fill="none" xmlns="http://www.w3.org/2000/svg">
<path d="M2.82446 1.40665L9.00046 7.58265L15.1445 1.43865C15.2802 1.2942 15.4437 1.17864 15.6251 1.09891C15.8066 1.01918 16.0023 0.97691 16.2005 0.974648C16.6248 0.974648 17.0318 1.14322 17.3318 1.44328C17.6319 1.74333 17.8005 2.1503 17.8005 2.57465C17.8042 2.77081 17.7678 2.96567 17.6935 3.14726C17.6192 3.32885 17.5086 3.49334 17.3685 3.63065L11.1445 9.77465L17.3685 15.9986C17.6322 16.2566 17.7868 16.606 17.8005 16.9746C17.8005 17.399 17.6319 17.806 17.3318 18.106C17.0318 18.4061 16.6248 18.5746 16.2005 18.5746C15.9965 18.5831 15.7931 18.5491 15.603 18.4747C15.413 18.4003 15.2405 18.2873 15.0965 18.1426L9.00046 11.9666L2.84046 18.1266C2.70526 18.2663 2.54376 18.3778 2.36526 18.4547C2.18676 18.5315 1.9948 18.5723 1.80046 18.5746C1.37611 18.5746 0.969143 18.4061 0.669085 18.106C0.369027 17.806 0.200456 17.399 0.200456 16.9746C0.196725 16.7785 0.23312 16.5836 0.307408 16.402C0.381695 16.2204 0.492307 16.056 0.632456 15.9186L6.85646 9.77465L0.632456 3.55065C0.368752 3.29266 0.214119 2.94331 0.200456 2.57465C0.200456 2.1503 0.369027 1.74333 0.669085 1.44328C0.969143 1.14322 1.37611 0.974648 1.80046 0.974648C2.18446 0.979448 2.55246 1.13465 2.82446 1.40665Z" fill="#A3A3A3"/>
</svg>
