<svg width="24" height="24" viewBox="0 0 24 24" fill="none" xmlns="http://www.w3.org/2000/svg">
<path d="M19.4545 2.50012C20.0332 2.50012 20.5881 2.72999 20.9973 3.13916C21.4065 3.54833 21.6364 4.10329 21.6364 4.68194V19.9547C21.6364 20.5333 21.4065 21.0882 20.9973 21.4974C20.5881 21.9066 20.0332 22.1365 19.4545 22.1365H4.18182C3.60317 22.1365 3.04821 21.9066 2.63904 21.4974C2.22987 21.0882 2 20.5333 2 19.9547V4.68194C2 4.10329 2.22987 3.54833 2.63904 3.13916C3.04821 2.72999 3.60317 2.50012 4.18182 2.50012H19.4545ZM18.9091 19.4092V13.6274C18.9091 12.6842 18.5344 11.7796 17.8675 11.1127C17.2005 10.4457 16.2959 10.071 15.3527 10.071C14.4255 10.071 13.3455 10.6383 12.8218 11.4892V10.2783H9.77818V19.4092H12.8218V14.031C12.8218 13.191 13.4982 12.5038 14.3382 12.5038C14.7432 12.5038 15.1317 12.6647 15.4181 12.9511C15.7045 13.2375 15.8655 13.626 15.8655 14.031V19.4092H18.9091ZM6.23273 8.56558C6.71879 8.56558 7.18496 8.37249 7.52866 8.02878C7.87236 7.68508 8.06545 7.21891 8.06545 6.73285C8.06545 5.7183 7.24727 4.88921 6.23273 4.88921C5.74376 4.88921 5.27483 5.08345 4.92908 5.4292C4.58333 5.77495 4.38909 6.24388 4.38909 6.73285C4.38909 7.7474 5.21818 8.56558 6.23273 8.56558ZM7.74909 19.4092V10.2783H4.72727V19.4092H7.74909Z" fill="#737373"/>
</svg>
