<svg width="24" height="24" viewBox="0 0 24 24" fill="none" xmlns="http://www.w3.org/2000/svg">
<path fill-rule="evenodd" clip-rule="evenodd" d="M18.6667 2C19.5169 1.99995 20.335 2.32481 20.9536 2.90809C21.5722 3.49138 21.9446 4.28901 21.9944 5.13778L22 5.33333V18.6667C22 19.5169 21.6752 20.335 21.0919 20.9536C20.5086 21.5722 19.711 21.9446 18.8622 21.9944L18.6667 22H5.33333C4.4831 22 3.66498 21.6752 3.04638 21.0919C2.42777 20.5086 2.05544 19.711 2.00556 18.8622L2 18.6667V5.33333C1.99995 4.4831 2.32481 3.66498 2.90809 3.04638C3.49138 2.42777 4.28901 2.05544 5.13778 2.00556L5.33333 2H18.6667ZM8.11111 14.2222C7.66908 14.2222 7.24516 14.3978 6.9326 14.7104C6.62004 15.0229 6.44444 15.4469 6.44444 15.8889C6.44444 16.3309 6.62004 16.7548 6.9326 17.0674C7.24516 17.38 7.66908 17.5556 8.11111 17.5556C8.55314 17.5556 8.97706 17.38 9.28962 17.0674C9.60218 16.7548 9.77778 16.3309 9.77778 15.8889C9.77778 15.4469 9.60218 15.0229 9.28962 14.7104C8.97706 14.3978 8.55314 14.2222 8.11111 14.2222ZM7.55556 10.3333C7.26087 10.3333 6.97826 10.4504 6.76988 10.6588C6.56151 10.8671 6.44444 11.1498 6.44444 11.4444C6.44444 11.7391 6.56151 12.0217 6.76988 12.2301C6.97826 12.4385 7.26087 12.5556 7.55556 12.5556C8.58695 12.5556 9.57611 12.9653 10.3054 13.6946C11.0347 14.4239 11.4444 15.413 11.4444 16.4444C11.4444 16.7391 11.5615 17.0217 11.7699 17.2301C11.9783 17.4385 12.2609 17.5556 12.5556 17.5556C12.8502 17.5556 13.1329 17.4385 13.3412 17.2301C13.5496 17.0217 13.6667 16.7391 13.6667 16.4444C13.6667 14.8237 13.0228 13.2693 11.8768 12.1232C10.7307 10.9772 9.17632 10.3333 7.55556 10.3333ZM8.11111 6.44444C7.9 6.44444 7.69037 6.45148 7.48222 6.46556C7.1936 6.49199 6.92674 6.63015 6.73854 6.85056C6.55035 7.07098 6.45573 7.3562 6.47487 7.64539C6.494 7.93459 6.62538 8.20486 6.84097 8.39856C7.05656 8.59225 7.3393 8.69405 7.62889 8.68222C8.6564 8.61338 9.68676 8.76507 10.6508 9.12712C11.6149 9.48917 12.4904 10.0532 13.2186 10.7814C13.9468 11.5096 14.5108 12.3851 14.8729 13.3492C15.2349 14.3132 15.3866 15.3436 15.3178 16.3711C15.3043 16.5188 15.3204 16.6676 15.3653 16.809C15.4102 16.9503 15.483 17.0812 15.5793 17.1939C15.6755 17.3067 15.7934 17.399 15.9259 17.4655C16.0585 17.532 16.203 17.5713 16.3509 17.5811C16.4989 17.5909 16.6473 17.571 16.7874 17.5225C16.9275 17.4741 17.0565 17.3981 17.1668 17.299C17.2771 17.1999 17.3665 17.0797 17.4296 16.9455C17.4928 16.8114 17.5284 16.6659 17.5344 16.5178C17.6206 15.2274 17.4408 13.9331 17.0062 12.7151C16.5716 11.4971 15.8915 10.3813 15.008 9.43689C14.1245 8.49248 13.0565 7.73957 11.8702 7.22482C10.6838 6.71008 9.40434 6.44447 8.11111 6.44444Z" fill="#737373"/>
</svg>
