<?xml version="1.0" encoding="UTF-8"?>
<svg version="1.1" xmlns="http://www.w3.org/2000/svg" width="1199" height="799">
<path d="M0 0 C2.43966955 2.2416152 4.75696857 4.56223593 7 7 C8.1055189 6.06409496 9.20935453 5.12620142 10.3125 4.1875 C10.92738281 3.66542969 11.54226563 3.14335937 12.17578125 2.60546875 C13.98213227 1.07254305 13.98213227 1.07254305 15.38671875 -0.5078125 C23.21329178 -7.74691879 35.42282799 -10.59109868 45.84765625 -10.25 C58.90063572 -8.73386445 70.70310187 -3.63294978 79.0625 6.6875 C82.59081113 11.19921988 85.0733827 15.6207319 87 21 C87.51189629 22.33711029 87.51189629 22.33711029 88.03413391 23.70123291 C89.08652988 27.29552951 89.24733845 30.24266827 89.24291992 33.98339844 C89.24481827 34.65405838 89.24671661 35.32471832 89.24867249 36.01570129 C89.25235201 38.21371466 89.24172017 40.41139145 89.23046875 42.609375 C89.22927565 44.14300498 89.22882406 45.67663569 89.2290802 47.21026611 C89.22752044 50.41447565 89.2192668 53.61857266 89.20581055 56.82275391 C89.18876394 60.9342537 89.18499813 65.04563071 89.18575573 69.15716171 C89.18548425 72.31922583 89.18000762 75.481263 89.17275429 78.64331818 C89.16956885 80.16001431 89.1676005 81.67671349 89.16686058 83.19341278 C89.16469894 85.30705513 89.15596028 87.42056557 89.14526367 89.53417969 C89.14145187 90.73741882 89.13764008 91.94065796 89.13371277 93.18035889 C89 96 89 96 88 98 C87.34 98 86.68 98 86 98 C86 98.66 86 99.32 86 100 C81.58774263 101.47075246 78.51718381 102.36884358 74 101 C74 100.34 74 99.68 74 99 C73.34 99 72.68 99 72 99 C69.54438237 91.38673565 69.74416844 83.93207124 69.8046875 76 C69.8084238 74.55411984 69.81126786 73.10823713 69.81326294 71.66235352 C69.82085086 67.88121385 69.84045693 64.10023108 69.8626709 60.31915283 C69.88323443 56.45107138 69.89228699 52.58296426 69.90234375 48.71484375 C69.92370807 41.14315812 69.95778451 33.57160115 70 26 C69.34 26 68.68 26 68 26 C67.79375 25.154375 67.5875 24.30875 67.375 23.4375 C64.88542279 17.21355698 61.40407699 13.36014533 55.25 10.625 C53.83752293 10.07250046 52.42151781 9.52880463 51 9 C50.34 8.67 49.68 8.34 49 8 C39.29975415 6.82115068 33.14676044 9.7553032 25.125 14.8125 C19.66411754 20.43399665 17.88369889 27.23320127 17.8581543 34.88256836 C17.85111984 36.06737289 17.84408539 37.25217743 17.83683777 38.47288513 C17.83059135 40.38702965 17.83059135 40.38702965 17.82421875 42.33984375 C17.80696259 44.34781332 17.78968297 46.35578302 17.77101612 48.36373997 C17.72548904 53.31172004 17.68767356 58.25958534 17.67407227 63.20776367 C17.66593645 65.9860054 17.64736741 68.76379609 17.61714172 71.54188538 C17.58897516 74.15719066 17.57608418 76.77271432 17.58000183 79.38816833 C17.56351089 80.57612503 17.54701996 81.76408173 17.5300293 82.98803711 C17.52122993 84.55212563 17.52122993 84.55212563 17.51225281 86.14781189 C16.87092957 89.71865521 15.48334816 91.40401692 13 94 C9.89951072 95.55024464 7.42105782 95.28992015 4 95 C1.30578613 93.34791565 1.30578613 93.34791565 -1 91 C-1.60559082 88.27720642 -1.60559082 88.27720642 -1.58007812 85.12084961 C-1.58358276 83.93539047 -1.5870874 82.74993134 -1.59069824 81.52854919 C-1.57108032 80.2494014 -1.5514624 78.9702536 -1.53125 77.65234375 C-1.53167058 76.31677355 -1.53501412 74.98120137 -1.5411377 73.64564514 C-1.55739111 68.69663852 -1.52030062 63.74829327 -1.48455811 58.79943848 C-1.45639888 54.6230058 -1.4491 50.4474901 -1.46812439 46.270998 C-1.46873392 44.32859198 -1.43942195 42.38624911 -1.40930176 40.44407654 C-1.43780399 30.6236243 -3.99442436 23.91821468 -9.0625 15.625 C-14.40471267 10.85110782 -21.40961832 7.80982397 -28.625 7.4375 C-33.79905396 7.74850871 -38.3648992 9.80653261 -43 12 C-44.10408203 12.50660156 -44.10408203 12.50660156 -45.23046875 13.0234375 C-47.57658719 14.31820485 -47.91779525 15.56503932 -49 18 C-49.66 18.845625 -50.32 19.69125 -51 20.5625 C-55.96684422 29.09926349 -55.25303014 39.46903559 -55.125 49.05859375 C-55.11343039 51.05485182 -55.10187179 53.05111002 -55.0909729 55.04737186 C-55.06929015 58.51082861 -55.034198 61.97414797 -55 65.4375 C-54.95914253 69.60219776 -54.92077294 73.76681538 -54.89794922 77.93165588 C-54.88290082 80.51484713 -54.85880413 83.09800497 -54.82470703 85.68101501 C-54.81479736 87.42917259 -54.81479736 87.42917259 -54.8046875 89.21264648 C-54.79421387 90.23647934 -54.78374023 91.26031219 -54.77294922 92.31517029 C-55.00936281 95.11071335 -55.45189976 96.67738737 -57 99 C-60.06047632 101.04031755 -60.93495994 101.31593524 -64.4375 101.375 C-65.19933594 101.40335937 -65.96117187 101.43171875 -66.74609375 101.4609375 C-69.94631436 100.80647297 -70.98918253 99.55328075 -73 97 C-73.50793457 93.85960388 -73.50793457 93.85960388 -73.51757812 90.11108398 C-73.5245874 89.42591202 -73.53159668 88.74074005 -73.53881836 88.0348053 C-73.55640735 85.77148757 -73.54476468 83.5094241 -73.53125 81.24609375 C-73.53394686 79.6639024 -73.53783089 78.08171267 -73.54284668 76.49952698 C-73.54874473 73.17978165 -73.54017742 69.86046673 -73.52148438 66.54077148 C-73.49882453 62.31319357 -73.51173225 58.08663879 -73.53577423 53.85909939 C-73.55033618 50.58765684 -73.54557688 47.31645035 -73.53526306 44.04500008 C-73.53261753 42.4882908 -73.53578793 40.93155921 -73.54518127 39.37487602 C-73.58809322 30.25550933 -72.95930992 22.41367467 -69 14 C-68.34 14 -67.68 14 -67 14 C-66.9175 13.278125 -66.835 12.55625 -66.75 11.8125 C-64.71819883 4.19324562 -56.98209842 -0.51689117 -50.61328125 -4.48828125 C-34.47478534 -13.29818482 -14.28945475 -11.44210953 0 0 Z " fill="#1F1F1F" transform="translate(389,353)"/>
<path d="M0 0 C2.75329021 1.79562405 4.52627461 3.05254922 6 6 C6.10380708 7.74744744 6.14385608 9.49882938 6.15390015 11.24932861 C6.16250061 12.36248947 6.17110107 13.47565033 6.17996216 14.62254333 C6.18422211 15.84957474 6.18848206 17.07660614 6.19287109 18.34082031 C6.20513733 20.27263908 6.20513733 20.27263908 6.21765137 22.2434845 C6.24387735 26.52167669 6.25918078 30.79987869 6.2734375 35.078125 C6.27879718 36.55086015 6.28417469 38.02359524 6.28956985 39.49633026 C6.31120053 45.62305478 6.32993673 51.74977665 6.34119225 57.87652969 C6.35742774 66.65636719 6.39059305 75.43576186 6.44759309 84.21543241 C6.48630486 90.38876389 6.50582644 96.56197699 6.51111281 102.73542666 C6.51476501 106.42238315 6.52677084 110.1088674 6.55921555 113.79569244 C6.59491349 117.91126285 6.59092227 122.02588302 6.58349609 126.14160156 C6.59990143 127.36053604 6.61630676 128.57947052 6.63320923 129.83534241 C6.56508152 139.04441943 6.56508152 139.04441943 3.63076782 142.76702881 C0.65070526 145.29647812 -0.47873316 145.68170135 -4.3125 145.375 C-5.63701172 145.29378906 -5.63701172 145.29378906 -6.98828125 145.2109375 C-7.65214844 145.14132812 -8.31601562 145.07171875 -9 145 C-9 144.34 -9 143.68 -9 143 C-9.66 143 -10.32 143 -11 143 C-11.99 139.37 -12.98 135.74 -14 132 C-14.66 132 -15.32 132 -16 132 C-16.24363281 132.59683594 -16.48726562 133.19367188 -16.73828125 133.80859375 C-20.0129206 139.49612525 -28.04236456 142.94564295 -34 145 C-48.66285042 148.7065075 -63.51268945 148.04564589 -76.984375 140.921875 C-82.2037153 137.59555968 -86.82217092 133.57258459 -91 129 C-91 128.34 -91 127.68 -91 127 C-91.66 127 -92.32 127 -93 127 C-94.1149359 124.88009448 -95.21673501 122.75479674 -96.3125 120.625 C-96.62123047 120.04105469 -96.92996094 119.45710938 -97.24804688 118.85546875 C-101.98159134 109.58768695 -103.53600221 101.0024049 -103.4375 90.625 C-103.43065186 89.51954834 -103.42380371 88.41409668 -103.41674805 87.27514648 C-103.26189137 79.42965478 -102.51051594 73.10081633 -99 66 C-98.60296875 65.10410156 -98.2059375 64.20820313 -97.796875 63.28515625 C-95.45551186 58.23937049 -92.88712289 53.99218027 -89 50 C-88.34 50 -87.68 50 -87 50 C-87 49.34 -87 48.68 -87 48 C-76.08409188 38.77954144 -63.54309339 33.33276612 -49.12109375 33.8125 C-35.61368051 35.00652548 -23.66725923 39.12213629 -14 49 C-13.98018066 47.85523193 -13.96036133 46.71046387 -13.93994141 45.53100586 C-13.86354772 41.26109792 -13.77488363 36.99151583 -13.68261719 32.72192383 C-13.64446642 30.87823954 -13.6095899 29.03448434 -13.578125 27.19067383 C-13.53217105 24.53180699 -13.4742284 21.87342247 -13.4140625 19.21484375 C-13.40251129 18.39789536 -13.39096008 17.58094696 -13.37905884 16.73924255 C-13.2388597 11.23363718 -13.08497129 5.39385592 -9.3125 1.0625 C-5.98144714 -0.46798375 -3.6251162 -0.44518971 0 0 Z M-76.58203125 64 C-78.02967285 66.04185262 -78.57953463 67.55365602 -79 70 C-79.66 70 -80.32 70 -81 70 C-85.31209689 84.26457052 -86.80117318 95.66002134 -81 110 C-75.84583253 119.1224203 -68.88648396 126.5642611 -58.61328125 129.52734375 C-48.05421308 131.43713037 -38.72112573 130.40032676 -29.71484375 124.50390625 C-26.59521005 122.23353763 -23.56634205 119.89596397 -21 117 C-21 116.34 -21 115.68 -21 115 C-20.34 115 -19.68 115 -19 115 C-18.20313394 113.46101439 -17.41276859 111.91866216 -16.625 110.375 C-15.96371094 109.08722656 -15.96371094 109.08722656 -15.2890625 107.7734375 C-10.8038271 98.12338557 -10.49142461 87.80912001 -13.625 77.625 C-18.0050658 66.19072297 -25.10753793 58.44623103 -36 53 C-51.31450371 46.99431227 -66.14955204 52.20876522 -76.58203125 64 Z " fill="#1E1E1E" transform="translate(653,309)"/>
<path d="M0 0 C0.94528564 0.01659668 1.89057129 0.03319336 2.86450195 0.05029297 C9.56043496 0.27381888 14.98470567 1.10224712 20.8125 4.5625 C22.0809375 5.23345703 22.0809375 5.23345703 23.375 5.91796875 C28.90336859 8.98654239 33.8960836 12.53081271 37.8125 17.5625 C37.8125 18.2225 37.8125 18.8825 37.8125 19.5625 C38.4725 19.5625 39.1325 19.5625 39.8125 19.5625 C40.78398051 21.36798737 41.73896511 23.18235301 42.6875 25 C43.22117187 26.00933594 43.75484375 27.01867187 44.3046875 28.05859375 C48.11816012 36.92047183 48.11986632 45.53920215 48.11328125 55.046875 C48.11717631 56.43451056 48.12151262 57.82214495 48.12626648 59.20977783 C48.13368329 62.10099173 48.13346852 64.99208337 48.12817383 67.88330078 C48.12235336 71.58093104 48.13939349 75.27806457 48.1625185 78.97561264 C48.17726466 81.83413597 48.17812692 84.69253943 48.17500877 87.55109406 C48.1755205 88.91460411 48.18073031 90.27812112 48.19082069 91.64159393 C48.20319777 93.54585418 48.1944431 95.45021606 48.18481445 97.35449219 C48.18544388 98.43543152 48.1860733 99.51637085 48.1867218 100.63006592 C47.75968777 103.97634115 46.80201263 105.86154959 44.8125 108.5625 C41.32386575 110.30681712 37.60929067 110.26510895 33.8125 109.5625 C29.99344459 105.6479682 29.2409926 101.91865755 28.8125 96.5625 C28.20664062 97.08199219 27.60078125 97.60148437 26.9765625 98.13671875 C14.6754814 108.37500318 2.8990015 112.8214436 -13.1875 111.5625 C-24.45144397 109.97621677 -33.851274 106.25511137 -41.03125 97.17578125 C-44.1875 92.77195946 -44.1875 92.77195946 -44.1875 89.5625 C-44.8475 89.5625 -45.5075 89.5625 -46.1875 89.5625 C-48.17403494 78.90304422 -48.22722636 69.30597095 -43.1875 59.5625 C-42.795625 58.675625 -42.40375 57.78875 -42 56.875 C-36.30381623 49.60745518 -28.85150641 46.13729627 -20.1875 43.5625 C-19.18847656 43.20414062 -18.18945312 42.84578125 -17.16015625 42.4765625 C-11.65678551 40.92817928 -5.91975971 41.22490736 -0.25 41.25 C1.54304565 41.25193359 1.54304565 41.25193359 3.37231445 41.25390625 C12.49367213 41.35254885 20.97639779 42.28919958 29.8125 44.5625 C28.22363623 38.47185555 26.53222284 33.64612122 22.8125 28.5625 C22.3175 27.0775 22.3175 27.0775 21.8125 25.5625 C19.98490566 24.43991173 19.98490566 24.43991173 17.8125 23.5625 C17.14992188 23.22089844 16.48734375 22.87929688 15.8046875 22.52734375 C8.87039238 19.16254741 2.58338431 18.50167929 -5.0625 18.625 C-9.20738019 18.5421024 -10.99614665 17.71130501 -13.9375 14.875 C-15.74755113 11.52640541 -15.71375307 9.31205311 -15.1875 5.5625 C-10.99640803 -0.3828016 -6.71153773 -0.19627472 0 0 Z M-22.1875 61.5625 C-22.1875 62.2225 -22.1875 62.8825 -22.1875 63.5625 C-22.8475 63.5625 -23.5075 63.5625 -24.1875 63.5625 C-24.1875 64.2225 -24.1875 64.8825 -24.1875 65.5625 C-25.1775 65.8925 -26.1675 66.2225 -27.1875 66.5625 C-28.30800151 69.92400452 -28.32046652 72.52536726 -28.3125 76.0625 C-28.31507813 77.2071875 -28.31765625 78.351875 -28.3203125 79.53125 C-28.32434408 82.60929859 -28.32434408 82.60929859 -27.1875 85.5625 C-26.5275 85.5625 -25.8675 85.5625 -25.1875 85.5625 C-24.93871094 86.17738281 -24.68992187 86.79226563 -24.43359375 87.42578125 C-22.96319389 89.94712521 -21.87373547 90.55295123 -19.25 91.75 C-18.56035156 92.07355469 -17.87070312 92.39710938 -17.16015625 92.73046875 C-10.4836571 95.5464971 -2.40823489 95.77528584 4.55859375 93.7734375 C6.73233553 92.81303219 8.76405641 91.76465863 10.8125 90.5625 C11.823125 90.02625 12.83375 89.49 13.875 88.9375 C14.8340625 88.256875 14.8340625 88.256875 15.8125 87.5625 C15.8125 86.9025 15.8125 86.2425 15.8125 85.5625 C16.8025 85.2325 17.7925 84.9025 18.8125 84.5625 C18.8125 83.9025 18.8125 83.2425 18.8125 82.5625 C20.1325 81.9025 21.4525 81.2425 22.8125 80.5625 C22.8125 79.9025 22.8125 79.2425 22.8125 78.5625 C23.4725 78.5625 24.1325 78.5625 24.8125 78.5625 C28.54331346 72.18401248 29.54212375 66.91673405 29.8125 59.5625 C13.21180111 55.5205907 -6.99416631 50.91347873 -22.1875 61.5625 Z " fill="#1F1F1F" transform="translate(873.1875,344.4375)"/>
<path d="M0 0 C2.80203619 2.16809135 4.4177777 4.8355554 6 8 C6.10080193 10.14245345 6.13512981 12.28812071 6.14044189 14.43293762 C6.14341302 15.10082123 6.14638414 15.76870484 6.1494453 16.45682734 C6.15814954 18.70536162 6.15964199 20.95384277 6.16113281 23.20239258 C6.16575979 24.81031916 6.17078429 26.41824463 6.17617798 28.02616882 C6.18931611 32.40227918 6.19574976 36.77837419 6.20018864 41.1545012 C6.20311726 43.88730658 6.20722167 46.62010774 6.21169281 49.352911 C6.22537184 57.89962743 6.23503635 66.44633426 6.2388947 74.99306089 C6.24337575 84.86554964 6.26092413 94.73789996 6.2898953 104.61034662 C6.31149985 112.23673183 6.32159834 119.86307806 6.32293582 127.48949355 C6.32398479 132.0464994 6.32991193 136.6033752 6.34775543 141.16034889 C6.36421481 145.4473724 6.36640205 149.73416781 6.35761642 154.02121162 C6.35684489 155.59458781 6.36120416 157.16797615 6.37107468 158.74132156 C6.38376296 160.88985734 6.37793511 163.03758143 6.36749268 165.18611145 C6.36895924 166.38829724 6.3704258 167.59048304 6.3719368 168.8290987 C5.8509556 173.27065967 4.26857604 175.88519075 0.9375 178.8125 C-4.18297546 180.88247944 -9.78540733 180.73819756 -15 179 C-19.15292306 174.23635297 -20.12478185 171.8890223 -20.14044189 165.61175537 C-20.14341302 164.94866088 -20.14638414 164.28556639 -20.1494453 163.60237813 C-20.15814938 161.36999728 -20.15964199 159.13766994 -20.16113281 156.90527344 C-20.16575985 155.30882146 -20.17078435 153.71237059 -20.17617798 152.11592102 C-20.18931663 147.77073427 -20.19575 143.42556298 -20.20018864 139.08035946 C-20.20311752 136.36630736 -20.20722201 133.6522595 -20.21169281 130.93820953 C-20.22537273 122.44862218 -20.23503648 113.95904451 -20.2388947 105.4694469 C-20.24337426 95.66601832 -20.26091533 85.86272925 -20.2898953 76.0593431 C-20.31150999 68.48474648 -20.3215989 60.91018912 -20.32293582 53.33556199 C-20.32398417 48.81038191 -20.32989811 44.28533288 -20.34775543 39.76018524 C-20.36423205 35.50188533 -20.36639364 31.24381503 -20.35761642 26.98549461 C-20.35684578 25.42382632 -20.36119242 23.86214571 -20.37107468 22.3005085 C-20.38379137 20.16545913 -20.37791963 18.03122327 -20.36749268 15.8961792 C-20.36895924 14.70228954 -20.3704258 13.50839989 -20.3719368 12.27833176 C-19.87414999 7.89073065 -18.29527845 4.63317718 -15.5625 1.1875 C-11.19655366 -2.13061922 -5.00670556 -1.34484324 0 0 Z " fill="#474747" transform="translate(146,310)"/>
<path d="M0 0 C1.11568359 1.02867187 1.11568359 1.02867187 2.25390625 2.078125 C2.92550781 2.68140625 3.59710937 3.2846875 4.2890625 3.90625 C12.9995518 12.11741189 16.83709714 22.43014185 17.4078064 34.27125549 C17.42066681 35.35680222 17.43352722 36.44234894 17.44677734 37.56079102 C17.46284027 38.80220352 17.4789032 40.04361603 17.49545288 41.32264709 C17.50693673 42.65910142 17.51754588 43.9955635 17.52734375 45.33203125 C17.53266743 46.01317427 17.5379911 46.69431728 17.5434761 47.396101 C17.57006193 50.99509423 17.58949066 54.59405436 17.60400391 58.19311523 C17.61738028 61.16022307 17.64531966 64.12664923 17.68603516 67.09350586 C17.7354174 70.69375772 17.76012885 74.29338876 17.76723099 77.89396477 C17.77392458 79.25949857 17.78909755 80.62501949 17.8131218 81.99035835 C18.0120494 93.9693435 18.0120494 93.9693435 14.87353516 97.89819336 C12.08032805 100.22256859 10.86524164 101.078125 7.25390625 101.078125 C4.01049059 100.36457356 1.93462121 99.77714486 -0.40074158 97.37898254 C-2.13623728 94.41089102 -2.13075778 92.38247273 -2.14672852 88.9519043 C-2.16673668 87.09428719 -2.16673668 87.09428719 -2.18714905 85.19914246 C-2.18728431 83.85020956 -2.18740082 82.50127665 -2.1875 81.15234375 C-2.1992795 79.76234042 -2.21264514 78.37234971 -2.2275238 76.9823761 C-2.26369656 73.32395397 -2.28390144 69.66564356 -2.29907227 66.00708008 C-2.32389925 60.16255414 -2.3638414 54.31827546 -2.42097282 48.47397804 C-2.437195 46.44057447 -2.4410703 44.4074072 -2.44398499 42.37394714 C-2.49419822 36.22278892 -2.62663785 30.87326645 -4.74609375 25.078125 C-5.09980873 23.41566459 -5.44204697 21.75038229 -5.74609375 20.078125 C-6.40609375 20.078125 -7.06609375 20.078125 -7.74609375 20.078125 C-8.14828125 19.15 -8.14828125 19.15 -8.55859375 18.203125 C-9.70166223 15.7786017 -9.70166223 15.7786017 -12.74609375 14.078125 C-12.74609375 13.418125 -12.74609375 12.758125 -12.74609375 12.078125 C-21.97755688 8.67705964 -30.98236199 7.02042198 -40.74609375 9.078125 C-42.43617873 10.0380159 -44.10793794 11.0320737 -45.74609375 12.078125 C-46.40609375 12.078125 -47.06609375 12.078125 -47.74609375 12.078125 C-48.40609375 13.398125 -49.06609375 14.718125 -49.74609375 16.078125 C-50.40609375 16.078125 -51.06609375 16.078125 -51.74609375 16.078125 C-52.07609375 17.398125 -52.40609375 18.718125 -52.74609375 20.078125 C-53.40609375 20.078125 -54.06609375 20.078125 -54.74609375 20.078125 C-54.86984375 20.75875 -54.99359375 21.439375 -55.12109375 22.140625 C-55.74609375 25.078125 -55.74609375 25.078125 -56.76806641 27.86865234 C-58.30774201 33.23957713 -58.02625305 38.78992529 -58.02048874 44.33275223 C-58.01951506 46.40158365 -58.03256113 48.46990745 -58.04946899 50.53866577 C-58.0955056 56.415387 -58.12035981 62.29204958 -58.12695312 68.16894531 C-58.13197326 71.77581862 -58.15623644 75.38215182 -58.19227982 78.98884201 C-58.20205569 80.35789113 -58.2044218 81.7270147 -58.19910812 83.09608841 C-58.19202198 85.0102034 -58.21143343 86.92436058 -58.23193359 88.83837891 C-58.23620865 90.46883652 -58.23620865 90.46883652 -58.24057007 92.13223267 C-58.86870477 95.79262934 -60.15168731 97.46303661 -62.74609375 100.078125 C-66.10305559 101.1494958 -68.04144816 101.27477028 -71.43359375 100.328125 C-74.32549968 98.7649326 -76.27353082 97.53251081 -77.31513977 94.32679749 C-77.82466055 91.6681717 -77.88091258 89.18244941 -77.89135742 86.47436523 C-77.89773727 85.34896835 -77.90411713 84.22357147 -77.91069031 83.06407166 C-77.91180313 81.8505452 -77.91291595 80.63701874 -77.9140625 79.38671875 C-77.9173909 78.13109634 -77.9207193 76.87547394 -77.92414856 75.58180237 C-77.92921367 72.92127954 -77.93198948 70.26085882 -77.93139648 67.6003418 C-77.93129548 64.22050827 -77.94488693 60.84088773 -77.96216869 57.46110439 C-77.97609365 54.20715095 -77.97538131 50.95319789 -77.9765625 47.69921875 C-77.98374802 46.49986191 -77.99093353 45.30050507 -77.99833679 44.06480408 C-77.95330568 27.26996671 -74.46245107 13.68761647 -62.4375 1.64453125 C-45.56178975 -14.44740146 -17.74123696 -15.37763718 0 0 Z " fill="#1F1F1F" transform="translate(1023.74609375,353.921875)"/>
<path d="M0 0 C2.52651839 1.96301703 3.74692689 3.79090854 5.13671875 6.66015625 C5.19921875 9.72265625 5.19921875 9.72265625 4.13671875 12.66015625 C1.13738596 15.38048134 -0.6444877 16.66015625 -4.73828125 16.66015625 C-7.86328125 15.66015625 -7.86328125 15.66015625 -11.30078125 13.84765625 C-19.71179592 9.4148242 -31.23282449 5.87685743 -40.59375 8.39453125 C-47.07047594 10.88902047 -47.07047594 10.88902047 -51.86328125 15.66015625 C-52.96331893 19.6202919 -53.17867594 21.83050783 -51.7109375 25.69140625 C-49.56315417 29.14239003 -48.02036921 30.10097101 -44.36328125 31.78515625 C-43.28949219 32.28015625 -42.21570312 32.77515625 -41.109375 33.28515625 C-33.10366549 36.67626305 -24.93342828 39.31808064 -16.61328125 41.828125 C-14.68787739 42.41066907 -12.77165329 43.02403224 -10.86328125 43.66015625 C-10.86328125 44.32015625 -10.86328125 44.98015625 -10.86328125 45.66015625 C-10.16203125 45.74265625 -9.46078125 45.82515625 -8.73828125 45.91015625 C-2.80623149 47.45764749 0.66826926 50.91048382 4.05859375 55.78125 C8.21930273 63.03234064 8.29630718 71.34849312 6.53125 79.43359375 C5.359821 83.0132905 3.84960534 86.30885641 2.13671875 89.66015625 C1.47671875 89.66015625 0.81671875 89.66015625 0.13671875 89.66015625 C-0.11078125 90.25828125 -0.35828125 90.85640625 -0.61328125 91.47265625 C-2.0440065 93.97642544 -3.43243945 95.14088013 -5.86328125 96.66015625 C-6.52328125 96.66015625 -7.18328125 96.66015625 -7.86328125 96.66015625 C-7.86328125 97.32015625 -7.86328125 97.98015625 -7.86328125 98.66015625 C-25.23557677 105.73410234 -42.65419556 104.80096923 -59.86328125 97.66015625 C-60.60191406 97.35464844 -61.34054687 97.04914063 -62.1015625 96.734375 C-63.69615805 96.06010714 -65.2812066 95.36330054 -66.86328125 94.66015625 C-66.86328125 94.00015625 -66.86328125 93.34015625 -66.86328125 92.66015625 C-68.51328125 92.33015625 -70.16328125 92.00015625 -71.86328125 91.66015625 C-71.86328125 91.00015625 -71.86328125 90.34015625 -71.86328125 89.66015625 C-72.85328125 89.33015625 -73.84328125 89.00015625 -74.86328125 88.66015625 C-76.17578125 87.03515625 -76.17578125 87.03515625 -76.86328125 84.66015625 C-76.221397 81.00141602 -75.62624217 78.50486299 -73.11328125 75.72265625 C-70.01038377 74.2573991 -68.27405956 74.1251322 -64.86328125 74.66015625 C-63.31396412 75.80530369 -61.76952237 76.95799058 -60.2578125 78.15234375 C-56.91385405 80.25800111 -53.3753336 81.55108631 -49.67578125 82.91015625 C-48.97404785 83.16812988 -48.27231445 83.42610352 -47.54931641 83.69189453 C-38.09927836 87.08902612 -28.40173069 88.45226901 -18.7734375 84.6953125 C-14.91180797 82.60260938 -12.60840514 79.99332544 -11.23828125 75.703125 C-10.62573206 72.36600808 -10.84506899 69.72650091 -11.73828125 66.47265625 C-18.07379697 58.08741486 -30.04490708 56.39110755 -39.65039062 53.875 C-51.14857133 50.68648356 -62.62755236 45.74882097 -69.17578125 35.28515625 C-72.68678446 27.71858606 -72.02970906 17.88621161 -69.30078125 10.16015625 C-64.84993598 0.85804365 -57.19865159 -3.54973427 -47.86328125 -7.33984375 C-32.14710142 -11.65460194 -13.93478829 -7.66093261 0 0 Z " fill="#1F1F1F" transform="translate(1136.86328125,352.33984375)"/>
<path d="M0 0 C2.75329021 1.79562405 4.52627461 3.05254922 6 6 C6.08573394 8.25120742 6.10712188 10.50499303 6.09765625 12.7578125 C6.0962413 13.42086395 6.09482635 14.08391541 6.09336853 14.76705933 C6.08776754 16.88641863 6.075215 19.00567259 6.0625 21.125 C6.05748512 22.56119639 6.05292219 23.99739444 6.04882812 25.43359375 C6.03779782 28.95576345 6.02053259 32.47787145 6 36 C7.33961792 35.97643433 7.33961792 35.97643433 8.70629883 35.95239258 C12.02178756 35.90124561 15.33685675 35.86364188 18.65258789 35.83520508 C20.08722552 35.82012411 21.52181708 35.7996562 22.95629883 35.77368164 C25.01915859 35.73726563 27.08140858 35.72026757 29.14453125 35.70703125 C31.00621948 35.68346558 31.00621948 35.68346558 32.90551758 35.65942383 C36 36 36 36 37.86987305 37.27612305 C39.79242882 40.2087578 40.44635625 43.56745756 40 47 C38.41723633 49.6027832 38.41723633 49.6027832 36 52 C32.79199219 52.56762695 32.79199219 52.56762695 29.046875 52.48828125 C28.05654266 52.47766914 28.05654266 52.47766914 27.04620361 52.46684265 C24.94629508 52.43894727 22.84909621 52.37623287 20.75 52.3125 C19.3229553 52.28741017 17.89586862 52.26459817 16.46875 52.24414062 C12.97829252 52.1891412 9.48941089 52.10290912 6 52 C6.08451243 60.50186591 6.1794377 69.00352553 6.28752708 77.50512123 C6.33739711 81.45308568 6.38372766 85.40102459 6.421875 89.34912109 C6.45884563 93.16179097 6.50523691 96.97424211 6.55806351 100.78672409 C6.57654506 102.23867314 6.59167589 103.69066896 6.60334396 105.14268875 C6.62031398 107.18210325 6.649373 109.2210236 6.68115234 111.26025391 C6.69447601 112.41941315 6.70779968 113.57857239 6.7215271 114.77285767 C7.08247439 118.95577194 7.71253595 122.6648521 10.6875 125.75 C17.75561593 129.57060321 23.86940171 128.84314874 31.57421875 127.8984375 C35 128 35 128 37.43359375 129.72265625 C39.95068704 133.38217094 39.41678881 135.62371754 39 140 C36.42737477 143.85893784 34.59956659 144.23091485 30.25 145.42578125 C18.8317192 147.44319384 8.00805237 146.77356666 -2.25 141.25 C-9.36795761 135.4262165 -11.32101757 128.89433462 -13 120 C-13.37691736 116.11158111 -13.42155919 112.26456717 -13.40405273 108.35986328 C-13.41091599 107.26559525 -13.41777924 106.17132721 -13.42485046 105.04389954 C-13.44297886 101.46923425 -13.43930351 97.89501333 -13.43359375 94.3203125 C-13.43815972 91.81834777 -13.44346653 89.31638429 -13.44947815 86.81442261 C-13.45951535 80.92515712 -13.45348132 75.03604798 -13.44222456 69.14678943 C-13.43399418 63.78703261 -13.45167303 58.42759569 -13.4754414 53.06789792 C-13.50029041 47.24474458 -13.5027748 41.42176354 -13.49632454 35.59856796 C-13.49617125 33.13061661 -13.50222162 30.66265672 -13.51461601 28.19473648 C-13.52948783 24.75074333 -13.51887863 21.30773186 -13.50170898 17.86376953 C-13.51137695 16.84756027 -13.52104492 15.83135101 -13.53100586 14.78434753 C-13.46949044 8.89370314 -12.93774549 5.48293824 -9 1 C-5.89951072 -0.55024464 -3.42105782 -0.28992015 0 0 Z " fill="#202020" transform="translate(701,309)"/>
<path d="M0 0 C7.81112118 8.19215148 6.00192356 22.27450523 5.9609375 32.8203125 C5.96296257 34.66633214 5.9658776 36.51235099 5.96963501 38.35836792 C5.97403577 42.20953051 5.96769875 46.06048308 5.95361328 49.91162109 C5.93649859 54.82842735 5.94639135 59.74474302 5.96433067 64.66153145 C5.97520894 68.46727141 5.97170409 72.27289642 5.9639473 76.07863998 C5.96195771 77.89099054 5.96436054 79.70335182 5.97138596 81.51568985 C6.02400068 98.89482666 6.02400068 98.89482666 2.5625 106.6875 C1.9025 106.6875 1.2425 106.6875 0.5625 106.6875 C0.5625 107.3475 0.5625 108.0075 0.5625 108.6875 C-3.77205001 110.85477501 -7.68186515 111.30611917 -12.4375 110.6875 C-16.59744539 108.89115994 -19.00992571 106.48959804 -21.4375 102.6875 C-22.01588768 99.62145321 -21.97416399 96.60707304 -21.93920898 93.49438477 C-21.94461197 92.57670319 -21.95001495 91.65902161 -21.95558167 90.71353149 C-21.96807192 87.68499332 -21.95157441 84.65740531 -21.93359375 81.62890625 C-21.93374874 79.52050222 -21.93523779 77.4120979 -21.93800354 75.30369568 C-21.93938772 70.88617345 -21.92682715 66.46897582 -21.90405273 62.05151367 C-21.87568573 56.3943801 -21.87840058 50.73778655 -21.89114285 45.08061314 C-21.89810491 40.72681584 -21.89030436 36.37314291 -21.87788582 32.0193615 C-21.87337524 29.93380142 -21.87303107 27.84822797 -21.87695122 25.7626667 C-21.87986811 22.84483709 -21.86333261 19.92774596 -21.84155273 17.01000977 C-21.84830521 15.72166985 -21.84830521 15.72166985 -21.85519409 14.40730286 C-21.79355669 9.4265498 -21.17469361 6.01356136 -18.4375 1.6875 C-13.29262478 -2.98965929 -6.12188619 -2.33744746 0 0 Z " fill="#909090" transform="translate(218.4375,345.3125)"/>
<path d="M0 0 C3.48547885 1.33486424 4.61826991 2.39607618 6.60266113 5.53552246 C8.37887374 9.93935667 8.43599119 13.60570295 8.41992188 18.30664062 C8.42839142 19.22446823 8.43686096 20.14229584 8.44558716 21.0879364 C8.46891696 24.11084993 8.4699804 27.1332534 8.46875 30.15625 C8.47585303 32.26322635 8.48355224 34.37020076 8.49182129 36.47717285 C8.50525617 40.88864524 8.50683885 45.29993868 8.50097656 49.71142578 C8.49507573 55.36085819 8.52569304 61.00943263 8.56609344 66.65869904 C8.59195549 71.00820532 8.5948493 75.35750445 8.59120178 79.70707703 C8.59289384 81.78987284 8.60254452 83.87267813 8.62034607 85.95539856 C8.64251027 88.86863542 8.63284722 91.7801279 8.61523438 94.69335938 C8.63512924 95.97934273 8.63512924 95.97934273 8.65542603 97.29130554 C8.59720629 101.44099149 8.29241243 104.17684878 5.67248535 107.49182129 C2.45085156 110.51538633 0.35065622 111.32489817 -4 112 C-9.33279313 111.81611058 -12.17301101 110.71764645 -16 107 C-18.64612716 103.03080926 -18.31049727 99.5685002 -18.32226562 94.95800781 C-18.33219543 94.03247101 -18.34212524 93.1069342 -18.35235596 92.15335083 C-18.38160289 89.08657877 -18.39520444 86.0200137 -18.40625 82.953125 C-18.41775388 80.82183832 -18.42926934 78.6905517 -18.4407959 76.55926514 C-18.46181777 72.08702632 -18.47350141 67.61485941 -18.48046875 63.14257812 C-18.49143037 57.41797481 -18.53946549 51.69432486 -18.59641266 45.97002029 C-18.63370562 41.5655848 -18.64407874 37.16137783 -18.6471405 32.75679779 C-18.65318712 30.64688665 -18.66922288 28.53697924 -18.69551086 26.42722321 C-18.72971667 23.47060732 -18.72585442 20.5163051 -18.71289062 17.55957031 C-18.73132019 16.69177948 -18.74974976 15.82398865 -18.76873779 14.92990112 C-18.69137755 9.28295308 -17.39158567 6.38394302 -13.48274994 2.29282761 C-9.62400205 -1.07166135 -4.84837929 -0.41295344 0 0 Z " fill="#C9C9C9" transform="translate(73,344)"/>
<path d="M0 0 C1.23254517 -0.02211548 1.23254517 -0.02211548 2.48999023 -0.04467773 C6.35230217 0.02211383 8.30775319 0.08011984 11.44140625 2.48046875 C13.03802138 4.70239007 13.77708996 5.83552929 13.9375 8.5625 C12.98868289 12.43683653 12.0595568 15.0444775 8.9375 17.5625 C7.02734375 18.00390625 7.02734375 18.00390625 4.875 18.125 C-2.78525287 18.77164472 -9.58503667 19.9058658 -16.37109375 23.66015625 C-18.0625 24.5625 -18.0625 24.5625 -21.0625 25.5625 C-22.17462107 27.31138314 -22.17462107 27.31138314 -23.0625 29.5625 C-23.48263367 30.46447617 -23.90276733 31.36645233 -24.33563232 32.29576111 C-27.89408792 40.69989459 -28.72845105 47.75156436 -28.515625 56.81640625 C-28.5011939 58.8083208 -28.48676626 60.80023539 -28.47254562 62.79215145 C-28.44645671 65.54031862 -28.39677997 68.2878713 -28.34753418 71.03570557 C-28.26625125 75.88308541 -28.22603203 80.73101745 -28.18084717 85.57884216 C-28.15448966 88.15092898 -28.12031095 90.72295026 -28.07745361 93.29481506 C-28.06123962 94.45379807 -28.04502563 95.61278107 -28.02832031 96.80688477 C-28.01101868 97.82468521 -27.99371704 98.84248566 -27.97589111 99.89112854 C-28.0918735 103.46849862 -28.19145067 105.72255957 -30.8125 108.25 C-34.06684675 110.14836894 -36.32006408 110.90830135 -40.08984375 110.16015625 C-44.20693078 108.90195063 -44.20693078 108.90195063 -46.0625 107.5625 C-48.88063387 101.66272009 -48.3500714 95.31658254 -48.328125 88.9296875 C-48.33003845 87.70146271 -48.3319519 86.47323792 -48.33392334 85.20779419 C-48.33528268 82.61053258 -48.33160381 80.01326413 -48.32324219 77.41601562 C-48.3125945 73.4724976 -48.32311791 69.52944087 -48.3359375 65.5859375 C-48.33461479 63.05468651 -48.33205009 60.5234358 -48.328125 57.9921875 C-48.33217346 56.82613983 -48.33622192 55.66009216 -48.34039307 54.45870972 C-48.28575035 44.74321686 -47.85602158 34.84521777 -43.1875 26.125 C-42.69507813 25.17753906 -42.20265625 24.23007812 -41.6953125 23.25390625 C-40.00460231 20.46706577 -38.23888225 17.99000328 -36.0625 15.5625 C-35.4025 15.5625 -34.7425 15.5625 -34.0625 15.5625 C-33.7325 14.5725 -33.4025 13.5825 -33.0625 12.5625 C-23.58442676 4.01603225 -12.57894157 0.15175507 0 0 Z " fill="#1F1F1F" transform="translate(812.0625,344.4375)"/>
<path d="M0 0 C2.74559226 2.01633154 4.68810456 3.61732509 5.46042061 7.04110718 C5.64492172 9.59569218 5.66403785 12.10683473 5.63110352 14.66796875 C5.63825882 15.63602448 5.64541412 16.6040802 5.65278625 17.60147095 C5.66967714 20.79729588 5.65026762 23.99171886 5.62890625 27.1875 C5.62973491 29.41040157 5.63219417 31.63330308 5.63621521 33.85620117 C5.63907349 38.51337137 5.62436843 43.17006072 5.59692383 47.82714844 C5.56284155 53.79612557 5.56885927 59.76424282 5.5875864 65.73326111 C5.59815604 70.32294884 5.58921878 74.91243657 5.57420158 79.50210571 C5.56901908 81.70292568 5.56950239 83.90376653 5.57574654 86.10458374 C5.58119811 89.1808563 5.56082444 92.25589884 5.53344727 95.33203125 C5.53997314 96.2412735 5.54649902 97.15051575 5.55322266 98.08731079 C5.49042405 102.23818179 5.34364429 104.44473444 3.11509705 108.0456543 C0.60530104 110.3647011 -0.59339871 110.91889045 -4 111 C-7.880487 110.06868312 -10.49552332 109.13819931 -13 106 C-13.38031673 104.04905796 -13.38031673 104.04905796 -13.38768005 101.7938385 C-13.39758469 100.93725143 -13.40748932 100.08066437 -13.41769409 99.19812012 C-13.41319244 98.26141479 -13.4086908 97.32470947 -13.40405273 96.35961914 C-13.41091599 95.37074203 -13.41777924 94.38186493 -13.42485046 93.36302185 C-13.44318513 90.0869215 -13.43927135 86.811297 -13.43359375 83.53515625 C-13.43815241 81.26215966 -13.44345703 78.98916445 -13.44947815 76.71617126 C-13.45842242 71.94882615 -13.45597117 67.18164844 -13.44604492 62.41430664 C-13.43455493 56.29949823 -13.45476099 50.18526724 -13.48396206 44.07053471 C-13.50229259 39.37540505 -13.50203783 34.68041455 -13.49632454 29.9852581 C-13.49617093 27.73056669 -13.50224758 25.47586607 -13.51461601 23.22120857 C-13.52946407 20.07036054 -13.51889382 16.92058931 -13.50170898 13.76977539 C-13.51137695 12.8350943 -13.52104492 11.90041321 -13.53100586 10.93740845 C-13.45887802 4.63414475 -13.45887802 4.63414475 -11.15614319 1.45188904 C-7.18044013 -1.22524285 -4.53480111 -1.26974431 0 0 Z " fill="#1F1F1F" transform="translate(521,344)"/>
<path d="M0 0 C0.86882812 0.06703125 1.73765625 0.1340625 2.6328125 0.203125 C4.875 0.75 4.875 0.75 6.875 3.75 C6.31683594 3.59273438 5.75867188 3.43546875 5.18359375 3.2734375 C1.07281885 2.34138363 -2.94959158 2.14193081 -7.125 2.75 C-10.73945272 5.40551629 -12.36829158 7.39560459 -13.125 11.75 C-13.22497248 13.92216959 -13.2685415 16.09714691 -13.27890015 18.27159119 C-13.2832824 18.92484943 -13.28766465 19.57810768 -13.2921797 20.25116163 C-13.30552506 22.43819604 -13.31173681 24.6251902 -13.31787109 26.81225586 C-13.32577513 28.38106975 -13.33404427 29.94988183 -13.34265137 31.51869202 C-13.36882635 36.6673917 -13.38416982 41.81609936 -13.3984375 46.96484375 C-13.40379816 48.73787504 -13.40917567 50.51090627 -13.41456985 52.28393745 C-13.43618776 59.65718221 -13.45492609 67.0304248 -13.46619225 74.4036932 C-13.48244521 84.97052403 -13.51566788 95.53698801 -13.57259309 106.10368055 C-13.61126301 113.53477581 -13.63082115 120.96577279 -13.63611281 128.39696604 C-13.63976899 132.83556524 -13.65181908 137.27377276 -13.68421555 141.71226311 C-13.71424625 145.8861584 -13.72062621 150.05942393 -13.70883179 154.23340416 C-13.70861066 155.7648732 -13.71694807 157.29637107 -13.73448563 158.82773972 C-13.75713939 160.91972825 -13.74890433 163.00942529 -13.73300171 165.10142517 C-13.73631186 166.27151595 -13.739622 167.44160673 -13.74303246 168.64715481 C-12.93951512 172.68123082 -11.24310769 174.16226693 -8.125 176.75 C-7.465 177.08 -6.805 177.41 -6.125 177.75 C-6.455 178.74 -6.785 179.73 -7.125 180.75 C-10.84091902 179.51136033 -11.84818712 177.86164427 -14.125 174.75 C-15.54236393 171.91527213 -15.25753086 169.53286352 -15.26544189 166.36175537 C-15.26841302 165.69866088 -15.27138414 165.03556639 -15.2744453 164.35237813 C-15.28314938 162.11999728 -15.28464199 159.88766994 -15.28613281 157.65527344 C-15.29075985 156.05882146 -15.29578435 154.46237059 -15.30117798 152.86592102 C-15.31431663 148.52073427 -15.32075 144.17556298 -15.32518864 139.83035946 C-15.32811752 137.11630736 -15.33222201 134.4022595 -15.33669281 131.68820953 C-15.35037273 123.19862218 -15.36003648 114.70904451 -15.3638947 106.2194469 C-15.36837426 96.41601832 -15.38591533 86.61272925 -15.4148953 76.8093431 C-15.43650999 69.23474648 -15.4465989 61.66018912 -15.44793582 54.08556199 C-15.44898417 49.56038191 -15.45489811 45.03533288 -15.47275543 40.51018524 C-15.48923205 36.25188533 -15.49139364 31.99381503 -15.48261642 27.73549461 C-15.48184578 26.17382632 -15.48619242 24.61214571 -15.49607468 23.0505085 C-15.50879137 20.91545913 -15.50291963 18.78122327 -15.49249268 16.6461792 C-15.49395924 15.45228954 -15.4954258 14.25839989 -15.4969368 13.02833176 C-14.99914999 8.64073065 -13.42027845 5.38317718 -10.6875 1.9375 C-7.41316271 -0.55099634 -3.95655845 -0.35431867 0 0 Z " fill="#232323" transform="translate(141.125,309.25)"/>
<path d="M0 0 C0.86882812 0.06703125 1.73765625 0.1340625 2.6328125 0.203125 C4.875 0.75 4.875 0.75 6.875 3.75 C6.34390625 3.58628906 5.8128125 3.42257812 5.265625 3.25390625 C2.33623236 2.63643623 -0.38322936 2.65498075 -3.375 2.6875 C-4.45265625 2.69652344 -5.5303125 2.70554687 -6.640625 2.71484375 C-7.87039062 2.73224609 -7.87039062 2.73224609 -9.125 2.75 C-9.125 2.09 -9.125 1.43 -9.125 0.75 C-5.93934478 -0.22792207 -3.31178911 -0.29657813 0 0 Z " fill="#1B1B1B" transform="translate(141.125,309.25)"/>
</svg>
